<?xml version="1.0" encoding="UTF-8"?>
<svg id="_Шар_1" data-name="Шар 1" xmlns="http://www.w3.org/2000/svg" viewBox="0 0 81 97.7">
  <defs>
    <style>
      .cls-1 {
        fill: #62c5e1;
      }

      .cls-1, .cls-2 {
        stroke-width: 0px;
      }

      .cls-2 {
        fill: #e00f23;
      }
    </style>
  </defs>
  <path class="cls-2" d="M39.71,0l2.52.32,29.94,9.14,8.82,2.52v33.41l-.95,5.99-2.84,8.51-3.78,7.25-4.1,5.99-2.84,3.47-3.47,3.78-5.36,5.36-3.47,2.84-2.21,1.89-5.36,3.78-4.1,2.52-1.58.95-1.89-.63-5.67-3.47-5.67-4.41-4.1-3.78-3.47-3.15-2.21-2.52-3.78-4.41-4.1-5.67-3.78-6.62-2.52-5.36-1.89-5.67-1.26-5.36-.32-2.21-.32-10.72V12.29l.32-.63,11.35-3.15L28.37,3.47l11.35-3.47Z"/>
  <path class="cls-1" d="M38.45,18.28h4.73l2.84,1.26,1.58,1.26,1.58,3.15.32,6.3v6.3l10.72-.32,3.15.63,2.52,1.58,2.21,2.52.95,2.21v3.78l-1.26,3.15-1.58,1.89-2.84,1.58-2.21.32h-11.66v13.55l-1.26,3.47-2.84,2.52-3.15,1.26h-3.47l-2.84-.95-2.21-1.89-1.26-2.52-.32-1.26v-14.18h-13.87l-2.52-1.26-2.21-2.21-1.26-3.15v-3.78l1.89-3.78,1.58-1.58,1.26-.95,1.89-.63,12.92-.32.32-11.03.95-2.84,2.52-2.84,2.84-1.26Z"/>
</svg>